<svg xmlns="http://www.w3.org/2000/svg" viewBox="0 0 456.82 89.62">
<defs></defs>
<title>_tretton37 logo green</title>
<g id="Layer_2" data-name="Layer 2">
  <g id="Layer_1-2" data-name="Layer 1">
    <path
      className="logoFill"
      d="M16.19,74.86a27.32,27.32,0,0,1-6.86-.8,11.4,11.4,0,0,1-4.89-2.64,12.94,12.94,0,0,1-3.23-5A24,24,0,0,1,0,58.1V0H14V14.76H28.47V27H14V55.33c0,5,2.61,7.72,7.35,7.72a21,21,0,0,0,6.89-1V72.28A33.94,33.94,0,0,1,23.39,74,26,26,0,0,1,16.19,74.86Z"></path>
    <path
      className="logoFill"
      d="M240.23,74.87c-12.88,0-25-7.41-29.46-19.72a30.1,30.1,0,0,1,9.83-33.82A33.44,33.44,0,0,1,256.84,19,30,30,0,0,1,271,51c-2.61,12.48-13.44,21.82-25.92,23.53A36.25,36.25,0,0,1,240.23,74.87Zm0-49.06a17.38,17.38,0,0,0-16.64,12.45c-2.25,7.29-.4,15.74,5.47,20.79a18,18,0,0,0,20.72,1.7c6.55-4,9.18-12.18,7.94-19.53C256.27,32.68,249,25.81,240.23,25.81Z"></path>
    <polygon
      className="logoFill"
      points="402.4 14.76 402.4 27.02 441.25 27.02 406.7 89.62 422.68 89.62 456.82 25.82 456.82 14.76 402.4 14.76"></polygon>
    <path
      className="logoFill"
      d="M305,14.76H278.67v60.1h14V27h12.77a11,11,0,0,1,8.07,3.1c3.89,4.11,3.89,13.42,3.89,20.69V74.86h14V41.12C331.4,18.18,314.88,14.76,305,14.76Z"></path>
    <polygon
      className="logoFill"
      points="54.14 14.76 38.47 14.76 38.47 74.86 52.47 74.86 52.47 27.01 67.05 27.01 54.14 14.76"></polygon>
    <path
      className="logoFill"
      d="M119.4,68.2a32.45,32.45,0,0,1-7.92,6.23,23.94,23.94,0,0,1-11.57,2.68,14.17,14.17,0,0,1-9.32-3,10.43,10.43,0,0,1-3.78-8.41v-.23a10.09,10.09,0,0,1,4.94-9c3-1.92,7.24-2.9,12.53-2.9h2.38l2.19-8.92L91.33,27h33.72V14.76h-51v11L93.22,44l-.15,0a39.83,39.83,0,0,0-7.66,2.09A21.81,21.81,0,0,0,79,49.93a17.82,17.82,0,0,0-4.48,6,21,21,0,0,0-1.68,8.86v.23a25,25,0,0,0,1.88,9.83,23,23,0,0,0,5.38,7.75,24.5,24.5,0,0,0,8.57,5.14,34.1,34.1,0,0,0,11.49,1.85c7,0,12.94-1.24,17.76-3.69a38.59,38.59,0,0,0,11.21-8.47Z"></path>
    <path
      className="logoFill"
      d="M347.05,68.2A32.68,32.68,0,0,0,355,74.43a23.87,23.87,0,0,0,11.56,2.68,14.15,14.15,0,0,0,9.32-3,10.43,10.43,0,0,0,3.78-8.41v-.23a10.1,10.1,0,0,0-4.93-9c-3-1.92-7.25-2.9-12.53-2.9h-2.39l-2.19-8.92L375.13,27H341.4V14.76h51v11L373.23,44l.15,0a40.13,40.13,0,0,1,7.67,2.09,22.07,22.07,0,0,1,6.43,3.83A17.8,17.8,0,0,1,392,56a21,21,0,0,1,1.69,8.86v.23a25,25,0,0,1-1.89,9.83,23,23,0,0,1-5.38,7.75,24.5,24.5,0,0,1-8.57,5.14,34.06,34.06,0,0,1-11.49,1.85c-7,0-12.94-1.24-17.76-3.69a38.42,38.42,0,0,1-11.2-8.47Z"></path>
    <path
      className="logoFill"
      d="M151.28,74.88a26.84,26.84,0,0,1-6.86-.81,11.28,11.28,0,0,1-4.89-2.63,13.09,13.09,0,0,1-3.23-5,24,24,0,0,1-1.21-8.29V0h14V14.77h14.47V27H149.09V55.34c0,5,2.61,7.72,7.35,7.72a21,21,0,0,0,6.89-1V72.29A31.64,31.64,0,0,1,158.48,74,25.56,25.56,0,0,1,151.28,74.88Z"></path>
    <path
      className="logoFill"
      d="M189.74,74.88a26.76,26.76,0,0,1-6.85-.81A11.22,11.22,0,0,1,178,71.44a13,13,0,0,1-3.23-5,23.81,23.81,0,0,1-1.21-8.29V0h14V14.77H202V27H187.55V55.34c0,5,2.62,7.72,7.36,7.72a20.88,20.88,0,0,0,6.88-1V72.29A31.52,31.52,0,0,1,197,74,25.63,25.63,0,0,1,189.74,74.88Z"></path>
  </g>
</g>
</svg>